<svg width="30" height="30" viewBox="0 0 50 50" fill="none" xmlns="http://www.w3.org/2000/svg">
<g clip-path="url(#clip0)">
<path d="M40.0398 20.0001C38.7606 19.9951 37.5374 20.2309 36.412 20.6637L30.3432 10.8862C30.175 10.6151 29.9404 10.3915 29.6616 10.2364C29.3828 10.0814 29.0691 9.99999 28.7501 10H23.7501C23.0597 10 22.5001 10.5596 22.5001 11.25V12.5C22.5001 13.1904 23.0597 13.75 23.7501 13.75H27.7071L28.8708 15.625H20.0002V14.375C20.0002 13.6846 19.4406 13.125 18.7502 13.125H11.9174C10.8674 13.125 9.98174 13.9843 10.0006 15.0341C10.0187 16.0532 10.8503 16.875 11.8752 16.875H15.6819L13.3837 20.5875C12.3342 20.2102 11.2037 20.0029 10.0249 20C4.53861 19.9867 0.0322057 24.4541 0.0001745 29.9403C-0.0322474 35.4905 4.45744 40 10.0002 40C14.6597 40 18.575 36.813 19.6851 32.5H23.7502C24.0695 32.5 24.3836 32.4184 24.6626 32.263C24.9416 32.1076 25.1763 31.8835 25.3444 31.6119L32.0602 20.7633L33.2272 22.6435C31.2385 24.4754 29.994 27.103 30.0001 30.0214C30.0114 35.399 34.5235 39.9473 39.9008 39.9995C45.4169 40.053 49.9149 35.6398 49.9988 30.156C50.0837 24.6137 45.5828 20.0216 40.0398 20.0001ZM14.5899 25.7634C15.3498 26.586 15.8924 27.612 16.1244 28.75H12.7411L14.5899 25.7634ZM10.0002 36.25C6.55392 36.25 3.75017 33.4462 3.75017 30C3.75017 26.5537 6.55392 23.75 10.0002 23.75C10.4587 23.75 10.9053 23.801 11.336 23.8952L7.78096 29.6381C7.009 30.8849 7.90728 32.5 9.37517 32.5H15.7267C14.7603 34.7051 12.5578 36.25 10.0002 36.25ZM22.7056 28.75H19.9225C19.6131 26.2691 18.3947 24.0708 16.6113 22.498L18.5446 19.375H28.5092L22.7056 28.75ZM39.6632 36.2411C36.4573 36.0719 33.8781 33.4527 33.7549 30.2446C33.6914 28.5945 34.2731 27.0791 35.2654 25.9272L38.7367 31.5198C39.1008 32.1064 39.8714 32.2867 40.458 31.9227L41.52 31.2635C42.1066 30.8995 42.287 30.1288 41.9228 29.5423L38.4488 23.9452C38.9557 23.8154 39.4769 23.7498 40.0002 23.7501C43.4464 23.7501 46.2502 26.5538 46.2502 30.0001C46.2501 33.5579 43.2617 36.431 39.6632 36.2411Z" fill="#F5F5F5"/>
</g>
<defs>
<clipPath id="clip0">
<rect width="50" height="50" fill="white"/>
</clipPath>
</defs>
</svg>
