<svg width="30" height="30" viewBox="0 0 50 50" fill="none" xmlns="http://www.w3.org/2000/svg">
<path d="M3.125 45.3125C3.125 47.9004 5.22461 50 7.8125 50H42.1875C44.7754 50 46.875 47.9004 46.875 45.3125V18.75H3.125V45.3125ZM34.375 26.1719C34.375 25.5273 34.9023 25 35.5469 25H39.4531C40.0977 25 40.625 25.5273 40.625 26.1719V30.0781C40.625 30.7227 40.0977 31.25 39.4531 31.25H35.5469C34.9023 31.25 34.375 30.7227 34.375 30.0781V26.1719ZM34.375 38.6719C34.375 38.0273 34.9023 37.5 35.5469 37.5H39.4531C40.0977 37.5 40.625 38.0273 40.625 38.6719V42.5781C40.625 43.2227 40.0977 43.75 39.4531 43.75H35.5469C34.9023 43.75 34.375 43.2227 34.375 42.5781V38.6719ZM21.875 26.1719C21.875 25.5273 22.4023 25 23.0469 25H26.9531C27.5977 25 28.125 25.5273 28.125 26.1719V30.0781C28.125 30.7227 27.5977 31.25 26.9531 31.25H23.0469C22.4023 31.25 21.875 30.7227 21.875 30.0781V26.1719ZM21.875 38.6719C21.875 38.0273 22.4023 37.5 23.0469 37.5H26.9531C27.5977 37.5 28.125 38.0273 28.125 38.6719V42.5781C28.125 43.2227 27.5977 43.75 26.9531 43.75H23.0469C22.4023 43.75 21.875 43.2227 21.875 42.5781V38.6719ZM9.375 26.1719C9.375 25.5273 9.90234 25 10.5469 25H14.4531C15.0977 25 15.625 25.5273 15.625 26.1719V30.0781C15.625 30.7227 15.0977 31.25 14.4531 31.25H10.5469C9.90234 31.25 9.375 30.7227 9.375 30.0781V26.1719ZM9.375 38.6719C9.375 38.0273 9.90234 37.5 10.5469 37.5H14.4531C15.0977 37.5 15.625 38.0273 15.625 38.6719V42.5781C15.625 43.2227 15.0977 43.75 14.4531 43.75H10.5469C9.90234 43.75 9.375 43.2227 9.375 42.5781V38.6719ZM42.1875 6.25H37.5V1.5625C37.5 0.703125 36.7969 0 35.9375 0H32.8125C31.9531 0 31.25 0.703125 31.25 1.5625V6.25H18.75V1.5625C18.75 0.703125 18.0469 0 17.1875 0H14.0625C13.2031 0 12.5 0.703125 12.5 1.5625V6.25H7.8125C5.22461 6.25 3.125 8.34961 3.125 10.9375V15.625H46.875V10.9375C46.875 8.34961 44.7754 6.25 42.1875 6.25Z" fill="#F5F5F5"/>
</svg>
