<svg width="30" height="30" viewBox="0 0 50 50" fill="none" xmlns="http://www.w3.org/2000/svg">
<path d="M48.75 40H42.5V13.8633C42.5 11.7336 40.818 10 38.75 10H30V15H37.5V45H48.75C49.4406 45 50 44.4407 50 43.75V41.25C50 40.5594 49.4406 40 48.75 40ZM24.3937 5.07895L9.39375 8.96489C8.28047 9.25317 7.5 10.2891 7.5 11.4782V40H1.25C0.559375 40 0 40.5594 0 41.25V43.75C0 44.4407 0.559375 45 1.25 45H27.5V7.59223C27.5 5.9063 25.9719 4.66958 24.3937 5.07895ZM20.625 27.5C19.5898 27.5 18.75 26.3805 18.75 25C18.75 23.6196 19.5898 22.5 20.625 22.5C21.6602 22.5 22.5 23.6196 22.5 25C22.5 26.3805 21.6602 27.5 20.625 27.5Z" fill="#F5F5F5"/>
</svg>
