<svg width="154" height="32" viewBox="0 0 154 32" fill="none" xmlns="http://www.w3.org/2000/svg">
<path d="M0 0.121895V0.771999C3.01588 0.771999 3.66796 2.11284 3.66796 5.60715V26.0855C3.66796 29.5798 3.01588 30.9206 0 30.9206V31.5707H13.0009C20.0515 31.5707 25.1867 28.3202 25.1867 22.5099C25.1867 17.3497 21.0297 15.2368 16.7096 14.8305C21.1112 13.7335 23.8418 11.133 23.8418 7.35431C23.8418 2.1941 19.1549 0 11.2077 0H3.62721L0 0.121895ZM10.9631 0.650106H11.3299C13.3269 0.650106 16.4651 3.45368 16.4651 7.4762C16.4651 11.4987 14.1828 14.668 11.3707 14.668H10.9224L10.9631 0.650106ZM10.9224 15.3181H12.1858C15.3239 15.3181 17.7692 17.9998 17.7692 22.388C17.7692 26.7762 14.9164 30.8393 10.9224 30.8393V15.3181Z" fill="black"/>
<path d="M37.7797 11.2956C29.6287 11.2956 26.7351 16.5777 27.2649 22.6724C27.3464 23.3631 27.4686 24.0132 27.6724 24.6633C30.3215 33.521 44.056 34.8619 47.887 25.3135L47.4387 24.8665C44.3005 29.9861 37.2091 28.9703 35.2121 22.8756C35.1306 22.6318 35.0491 22.388 35.0084 22.1442L42.7111 21.2503C46.9904 20.7627 47.1941 16.8215 45.4009 14.4648C44.056 12.7177 41.7737 11.2549 37.902 11.2549L37.7797 11.2956ZM37.8612 11.905C39.9805 11.905 40.7141 14.4648 40.9586 17.0653C41.0809 18.528 40.5511 20.844 36.394 21.3316L34.9676 21.4941C34.9676 21.4128 34.9676 21.3316 34.9676 21.2503C34.234 16.4558 35.0084 11.8644 37.902 11.8644L37.8612 11.905Z" fill="black"/>
<path d="M63.9805 11.0111C63.3692 11.0111 62.7171 11.0924 62.0242 11.2956C60.3533 11.7831 59.3344 12.4739 58.7231 13.2865V11.2956H58.071C58.071 11.2956 54.0362 14.8711 48.3713 14.8711V15.5213C50.6535 15.6838 51.3871 17.5528 51.3871 21.0471V26.1261C51.3871 29.6204 50.7351 30.9612 47.7192 30.9612V31.6113H62.391V30.9612C59.6604 30.9612 58.7231 29.6204 58.7231 26.1261V19.9501C58.7231 15.1556 58.9676 13.0834 61.6167 12.6364C64.2658 12.1895 64.9179 16.7808 61.8205 16.8621C62.2688 19.7063 66.385 20.1939 67.9337 17.6747C69.89 14.4648 67.6892 11.0924 63.9805 11.0924V11.0111Z" fill="black"/>
<path d="M79.3496 11.2956C79.3496 11.2956 75.3149 14.8711 69.6499 14.8711V15.5213C71.9322 15.6838 72.6658 17.5528 72.6658 21.0471V26.1667C72.6658 29.4579 71.9322 31.0019 69.7722 31.0019V31.652H82.8546V31.0019C80.6946 31.0019 79.961 29.4579 79.961 26.1667V20.2345C79.961 15.6838 80.287 13.2865 82.6916 12.9615C85.3406 12.5958 86.3595 15.3994 86.6448 17.9998L87.4599 26.1667C87.7452 29.2141 86.6448 31.0019 84.4848 31.0019V31.652H97.5672V31.0019C95.4072 31.0019 95.2849 29.8642 94.4698 23.5663L93.8992 18.6905C93.3286 15.0337 91.3724 11.3362 85.0961 11.3362C82.8138 11.3362 81.0206 12.2707 79.8794 13.6116V11.3362H79.2274L79.3496 11.2956Z" fill="black"/>
<path d="M122.302 3.90063C121.283 7.67936 116.841 11.2549 112.236 12.4739V13.124H115.619V24.5415C115.619 29.9454 117.534 31.9364 121.08 31.9364C125.155 31.9364 126.948 28.2389 127.723 26.8981L127.274 26.4511C125.726 29.1735 123.036 30.1486 123.036 24.5821V13.1646H126.908V12.5145H123.036V3.94126L122.302 3.90063Z" fill="black"/>
<path d="M138.635 11.2956C133.174 11.2956 130.851 14.5867 131.666 17.6341C132.726 21.4941 138.88 19.8282 137.779 15.8057C135.905 15.8057 135.456 14.9524 135.456 14.0179C135.456 13.0834 136.108 12.0269 138.595 12.0269C141.407 12.0269 141.529 15.3181 141.814 17.0653L141.855 17.5528C142.507 23.2006 129.588 18.0404 129.588 26.6949C129.588 30.5956 133.174 31.977 136.801 31.977C141.366 31.977 143.444 29.4172 143.485 29.3766C145.645 33.8054 153.511 31.5707 154 30.2705V29.7829C154 29.7829 151.147 31.652 150.169 25.476L149.476 19.2594L149.395 18.6905C148.702 14.1398 147.194 11.2956 138.635 11.2956ZM142.14 19.5844L143.037 27.4669C143.485 31.1238 136.598 31.205 136.598 25.9636C136.598 21.6972 141.366 21.4128 142.14 19.5438V19.5844Z" fill="black"/>
<path d="M74.8253 5.72002C75.5442 5.72002 75.997 5.4435 76.4102 5.0259L76.1159 4.73809C75.7366 5.09926 75.38 5.30806 74.8366 5.30806C73.9649 5.30806 73.3027 4.59137 73.3027 3.67716V3.66587C73.3027 2.7573 73.9593 2.04625 74.8366 2.04625C75.3744 2.04625 75.748 2.27198 76.0819 2.58801L76.3876 2.2607C75.9914 1.88824 75.5612 1.63429 74.8423 1.63429C73.6762 1.63429 72.8385 2.55979 72.8385 3.67716V3.68844C72.8385 4.82274 73.6819 5.72002 74.8253 5.72002Z" fill="black"/>
<path d="M82.8251 5.6523H83.2836L83.7534 4.6083H85.91L86.3742 5.6523H86.8553L85.0497 1.6738H84.6308L82.8251 5.6523ZM83.9289 4.20198L84.8346 2.19298L85.7346 4.20198H83.9289Z" fill="black"/>
<path d="M93.6085 5.6523H94.0556V3.9311H96.2009V3.52479H94.0556V2.11397H96.4557V1.70201H93.6085V5.6523Z" fill="black"/>
<path fill-rule="evenodd" clip-rule="evenodd" d="M101.03 4.38821C101.03 2.03158 102.945 0.121895 105.309 0.121895C107.673 0.121895 109.588 2.03158 109.588 4.38821C109.588 6.74484 107.673 8.65452 105.309 8.65452C102.945 8.65452 101.03 6.74484 101.03 4.38821ZM99.2365 14.8711C104.902 14.8711 108.936 11.2956 108.936 11.2956L109.588 11.3362V26.1261C109.588 29.6204 110.526 30.9612 113.256 30.9612V31.6113H98.5845V30.9612C101.6 30.9612 102.252 29.6204 102.252 26.1261V21.0471C102.252 17.5528 101.519 15.6838 99.2365 15.5213V14.8711ZM106.187 5.6523H103.295V1.70201H106.159V2.10833H103.742V3.45707H105.904V3.86338H103.742V5.24599H106.187V5.6523Z" fill="black"/>
</svg>
